<svg xmlns="http://www.w3.org/2000/svg" width="1180" height="720" viewBox="0 0 1180 720">
<defs>
<linearGradient id="bg" x1="0" y1="0" x2="1" y2="1">
<stop offset="0%" stop-color="#FFFFFF"/>
<stop offset="100%" stop-color="#F7F5EF"/>
</linearGradient>
<filter id="shadow" x="-20%" y="-20%" width="140%" height="140%">
<feDropShadow dx="0" dy="8" stdDeviation="12" flood-opacity="0.10"/>
</filter>
</defs>
<rect width="1180" height="720" fill="url(#bg)" rx="24"/>
<text x="76" y="88" font-family="Segoe UI, Microsoft YaHei, sans-serif" font-size="32" font-weight="700" fill="#132238" text-anchor="start">Main Comparison Against Baselines</text>
<text x="76" y="126" font-family="Segoe UI, Microsoft YaHei, sans-serif" font-size="17" font-weight="400" fill="#5B6677" text-anchor="start">Average overall coverage on the 16-case test split.</text>
<line x1="400" y1="145" x2="1020" y2="145" stroke="#D8DCE3" stroke-width="1.5"/>
<line x1="400.0" y1="145" x2="400.0" y2="640" stroke="#D8DCE3" stroke-width="1" stroke-dasharray="4 8"/>
<text x="400.0" y="166" font-family="Segoe UI, Microsoft YaHei, sans-serif" font-size="14" font-weight="400" fill="#5B6677" text-anchor="middle">0.0</text>
<line x1="524.0" y1="145" x2="524.0" y2="640" stroke="#D8DCE3" stroke-width="1" stroke-dasharray="4 8"/>
<text x="524.0" y="166" font-family="Segoe UI, Microsoft YaHei, sans-serif" font-size="14" font-weight="400" fill="#5B6677" text-anchor="middle">0.2</text>
<line x1="648.0" y1="145" x2="648.0" y2="640" stroke="#D8DCE3" stroke-width="1" stroke-dasharray="4 8"/>
<text x="648.0" y="166" font-family="Segoe UI, Microsoft YaHei, sans-serif" font-size="14" font-weight="400" fill="#5B6677" text-anchor="middle">0.4</text>
<line x1="772.0" y1="145" x2="772.0" y2="640" stroke="#D8DCE3" stroke-width="1" stroke-dasharray="4 8"/>
<text x="772.0" y="166" font-family="Segoe UI, Microsoft YaHei, sans-serif" font-size="14" font-weight="400" fill="#5B6677" text-anchor="middle">0.6</text>
<line x1="896.0" y1="145" x2="896.0" y2="640" stroke="#D8DCE3" stroke-width="1" stroke-dasharray="4 8"/>
<text x="896.0" y="166" font-family="Segoe UI, Microsoft YaHei, sans-serif" font-size="14" font-weight="400" fill="#5B6677" text-anchor="middle">0.8</text>
<line x1="1020.0" y1="145" x2="1020.0" y2="640" stroke="#D8DCE3" stroke-width="1" stroke-dasharray="4 8"/>
<text x="1020.0" y="166" font-family="Segoe UI, Microsoft YaHei, sans-serif" font-size="14" font-weight="400" fill="#5B6677" text-anchor="middle">1.0</text>
<rect x="74" y="144" width="1030" height="84" rx="20" fill="#FFFFFF" stroke="#D8DCE3" stroke-width="1.5" filter="url(#shadow)"/>
<text x="130" y="180" font-family="Segoe UI, Microsoft YaHei, sans-serif" font-size="22" font-weight="700" fill="#132238" text-anchor="start">Rule-based</text>
<text x="130" y="208" font-family="Segoe UI, Microsoft YaHei, sans-serif" font-size="16" font-weight="400" fill="#5B6677" text-anchor="start">Traditional heuristic baseline</text>
<rect x="400" y="162" width="620" height="28" rx="14" fill="#F5E3B5"/>
<rect x="400" y="162" width="91.14" height="28" rx="14" fill="#D8A332"/>
<text x="503.14" y="183" font-family="Segoe UI, Microsoft YaHei, sans-serif" font-size="16" font-weight="600" fill="#132238" text-anchor="start">coverage 0.147</text>
<rect x="875" y="150" width="150" height="34" rx="17" fill="#D8A332" opacity="0.14"/><text x="891" y="172" font-family="Segoe UI, Microsoft YaHei, sans-serif" font-size="14" font-weight="600" fill="#132238" text-anchor="start">score: 0.753</text>
<rect x="74" y="254" width="1030" height="84" rx="20" fill="#FFFFFF" stroke="#D8DCE3" stroke-width="1.5" filter="url(#shadow)"/>
<text x="130" y="290" font-family="Segoe UI, Microsoft YaHei, sans-serif" font-size="22" font-weight="700" fill="#132238" text-anchor="start">Plain LLM</text>
<text x="130" y="318" font-family="Segoe UI, Microsoft YaHei, sans-serif" font-size="16" font-weight="400" fill="#5B6677" text-anchor="start">Single-pass prompting without ARG structure</text>
<rect x="400" y="272" width="620" height="28" rx="14" fill="#F2C6B8"/>
<rect x="400" y="272" width="18.599999999999998" height="28" rx="14" fill="#D55C3A"/>
<text x="430.6" y="293" font-family="Segoe UI, Microsoft YaHei, sans-serif" font-size="16" font-weight="600" fill="#132238" text-anchor="start">coverage 0.030</text>
<rect x="875" y="260" width="150" height="34" rx="17" fill="#D55C3A" opacity="0.14"/><text x="891" y="282" font-family="Segoe UI, Microsoft YaHei, sans-serif" font-size="14" font-weight="600" fill="#132238" text-anchor="start">score: 0.844</text>
<rect x="74" y="364" width="1030" height="84" rx="20" fill="#FFFFFF" stroke="#D8DCE3" stroke-width="1.5" filter="url(#shadow)"/>
<text x="130" y="400" font-family="Segoe UI, Microsoft YaHei, sans-serif" font-size="22" font-weight="700" fill="#132238" text-anchor="start">Structured No Checker</text>
<text x="130" y="428" font-family="Segoe UI, Microsoft YaHei, sans-serif" font-size="16" font-weight="400" fill="#5B6677" text-anchor="start">Structured generation without checker-guided selection</text>
<rect x="400" y="382" width="620" height="28" rx="14" fill="#B9DDD8"/>
<rect x="400" y="382" width="333.56" height="28" rx="14" fill="#3B8C88"/>
<text x="745.56" y="403" font-family="Segoe UI, Microsoft YaHei, sans-serif" font-size="16" font-weight="600" fill="#132238" text-anchor="start">coverage 0.538</text>
<rect x="875" y="370" width="150" height="34" rx="17" fill="#3B8C88" opacity="0.14"/><text x="891" y="392" font-family="Segoe UI, Microsoft YaHei, sans-serif" font-size="14" font-weight="600" fill="#132238" text-anchor="start">score: 0.841</text>
<rect x="74" y="474" width="1030" height="84" rx="20" fill="#FFFFFF" stroke="#D8DCE3" stroke-width="1.5" filter="url(#shadow)"/>
<text x="130" y="510" font-family="Segoe UI, Microsoft YaHei, sans-serif" font-size="22" font-weight="700" fill="#132238" text-anchor="start">ARG-Test Full Pipeline</text>
<text x="130" y="538" font-family="Segoe UI, Microsoft YaHei, sans-serif" font-size="16" font-weight="400" fill="#5B6677" text-anchor="start">Structured generation + checker + rerank + repair</text>
<rect x="400" y="492" width="620" height="28" rx="14" fill="#E2DAF3"/>
<rect x="400" y="492" width="381.3" height="28" rx="14" fill="#7C6BB0"/>
<text x="793.3" y="513" font-family="Segoe UI, Microsoft YaHei, sans-serif" font-size="16" font-weight="600" fill="#132238" text-anchor="start">coverage 0.615</text>
<rect x="875" y="480" width="150" height="34" rx="17" fill="#7C6BB0" opacity="0.14"/><text x="891" y="502" font-family="Segoe UI, Microsoft YaHei, sans-serif" font-size="14" font-weight="600" fill="#132238" text-anchor="start">score: 0.959</text>
</svg>